<svg width="32" height="32" viewBox="0 0 32 32" fill="none" xmlns="http://www.w3.org/2000/svg">
<path d="M10.6668 29.3333H21.3334C26.6934 29.3333 27.6534 27.1867 27.9334 24.5733L28.9334 13.9067C29.2934 10.6533 28.3601 8 22.6668 8H9.33343C3.64009 8 2.70676 10.6533 3.06676 13.9067L4.06676 24.5733C4.34676 27.1867 5.30676 29.3333 10.6668 29.3333Z" stroke="white" stroke-width="2" stroke-miterlimit="10" stroke-linecap="round" stroke-linejoin="round"/>
<path opacity="0.4" d="M10.6667 8.00002V6.93335C10.6667 4.57335 10.6667 2.66669 14.9334 2.66669H17.0667C21.3334 2.66669 21.3334 4.57335 21.3334 6.93335V8.00002" stroke="white" stroke-width="2" stroke-miterlimit="10" stroke-linecap="round" stroke-linejoin="round"/>
<g opacity="0.4">
<path d="M18.6666 17.3333V18.6667C18.6666 18.68 18.6666 18.68 18.6666 18.6933C18.6666 20.1467 18.6533 21.3333 15.9999 21.3333C13.3599 21.3333 13.3333 20.16 13.3333 18.7067V17.3333C13.3333 16 13.3333 16 14.6666 16H17.3333C18.6666 16 18.6666 16 18.6666 17.3333Z" stroke="white" stroke-width="2" stroke-miterlimit="10" stroke-linecap="round" stroke-linejoin="round"/>
<path d="M28.8667 14.6667C25.7867 16.9067 22.2667 18.24 18.6667 18.6934" stroke="white" stroke-width="2" stroke-miterlimit="10" stroke-linecap="round" stroke-linejoin="round"/>
<path d="M3.49219 15.0261C6.49219 17.0794 9.87885 18.3194 13.3322 18.7061" stroke="white" stroke-width="2" stroke-miterlimit="10" stroke-linecap="round" stroke-linejoin="round"/>
</g>
</svg>
