<svg width="32" height="32" viewBox="0 0 32 32" fill="none" xmlns="http://www.w3.org/2000/svg">
<path d="M25.3334 12C25.3334 13.9334 24.7601 15.7067 23.7734 17.1867C22.3334 19.32 20.0534 20.8267 17.4001 21.2134C16.9467 21.2934 16.4801 21.3334 16.0001 21.3334C15.5201 21.3334 15.0534 21.2934 14.6001 21.2134C11.9467 20.8267 9.66675 19.32 8.22675 17.1867C7.24008 15.7067 6.66675 13.9334 6.66675 12C6.66675 6.84002 10.8401 2.66669 16.0001 2.66669C21.1601 2.66669 25.3334 6.84002 25.3334 12Z" stroke="white" stroke-width="2" stroke-linecap="round" stroke-linejoin="round"/>
<path opacity="0.4" d="M28.3333 24.6266L26.1333 25.1466C25.6399 25.2666 25.2533 25.64 25.1466 26.1333L24.6799 28.0933C24.4266 29.16 23.0666 29.48 22.3599 28.64L15.9999 21.3333L9.63994 28.6533C8.93328 29.4933 7.57328 29.1733 7.31994 28.1066L6.85328 26.1466C6.73328 25.6533 6.34661 25.2666 5.86661 25.16L3.66661 24.64C2.65328 24.4 2.29328 23.1333 3.02661 22.3999L8.22661 17.2C9.66661 19.3333 11.9466 20.84 14.5999 21.2266C15.0533 21.3066 15.5199 21.3466 15.9999 21.3466C16.4799 21.3466 16.9466 21.3066 17.3999 21.2266C20.0533 20.84 22.3333 19.3333 23.7733 17.2L28.9733 22.3999C29.7066 23.1199 29.3466 24.3866 28.3333 24.6266Z" stroke="white" stroke-width="2" stroke-linecap="round" stroke-linejoin="round"/>
<path opacity="0.4" d="M16.7734 7.97331L17.56 9.54664C17.6667 9.75997 17.9467 9.97331 18.2 10.0133L19.6267 10.2533C20.5334 10.4 20.7467 11.0666 20.0934 11.72L18.9867 12.8266C18.8 13.0133 18.6934 13.3733 18.76 13.64L19.08 15.0133C19.3334 16.0933 18.76 16.52 17.8 15.9466L16.4667 15.16C16.2267 15.0133 15.8267 15.0133 15.5867 15.16L14.2534 15.9466C13.2934 16.5066 12.72 16.0933 12.9734 15.0133L13.2934 13.64C13.3467 13.3866 13.2534 13.0133 13.0667 12.8266L11.96 11.72C11.3067 11.0666 11.52 10.4133 12.4267 10.2533L13.8534 10.0133C14.0934 9.97331 14.3734 9.75997 14.48 9.54664L15.2667 7.97331C15.6534 7.11998 16.3467 7.11998 16.7734 7.97331Z" stroke="white" stroke-width="2" stroke-linecap="round" stroke-linejoin="round"/>
</svg>
