<svg width="32" height="32" viewBox="0 0 32 32" fill="none" xmlns="http://www.w3.org/2000/svg">
<path d="M5.67993 14.6933V21.32C5.67993 23.7467 5.67993 23.7466 7.97326 25.2933L14.2799 28.9333C15.2266 29.48 16.7733 29.48 17.7199 28.9333L24.0266 25.2933C26.3199 23.7466 26.3199 23.7467 26.3199 21.32V14.6933C26.3199 12.2667 26.3199 12.2666 24.0266 10.72L17.7199 7.07998C16.7733 6.53332 15.2266 6.53332 14.2799 7.07998L7.97326 10.72C5.67993 12.2666 5.67993 12.2667 5.67993 14.6933Z" stroke="white" stroke-width="2" stroke-linecap="round" stroke-linejoin="round"/>
<path opacity="0.4" d="M23.3334 10.1734V6.66669C23.3334 4.00002 22.0001 2.66669 19.3334 2.66669H12.6667C10.0001 2.66669 8.66675 4.00002 8.66675 6.66669V10.08" stroke="white" stroke-width="2" stroke-linecap="round" stroke-linejoin="round"/>
<path opacity="0.4" d="M16.8401 14.6533L17.6001 15.84C17.7201 16.0267 17.9868 16.2133 18.1868 16.2667L19.5468 16.6133C20.3868 16.8267 20.6134 17.5467 20.0668 18.2133L19.1734 19.2933C19.0401 19.4667 18.9334 19.7733 18.9468 19.9867L19.0268 21.3867C19.0801 22.2533 18.4668 22.6933 17.6668 22.3733L16.3601 21.8533C16.1601 21.7733 15.8268 21.7733 15.6268 21.8533L14.3201 22.3733C13.5201 22.6933 12.9068 22.24 12.9601 21.3867L13.0401 19.9867C13.0534 19.7733 12.9468 19.4533 12.8134 19.2933L11.9201 18.2133C11.3734 17.5467 11.6001 16.8267 12.4401 16.6133L13.8001 16.2667C14.0134 16.2133 14.2801 16.0133 14.3868 15.84L15.1468 14.6533C15.6268 13.9333 16.3734 13.9333 16.8401 14.6533Z" stroke="white" stroke-width="2" stroke-linecap="round" stroke-linejoin="round"/>
</svg>
