<svg width="32" height="32" viewBox="0 0 32 32" fill="none" xmlns="http://www.w3.org/2000/svg">
<path d="M14.3331 3.26676C15.2531 2.48009 16.7597 2.48009 17.6931 3.26676L19.7998 5.08023C20.1998 5.4269 20.9464 5.70686 21.4797 5.70686H23.7464C25.1598 5.70686 26.3197 6.86677 26.3197 8.2801V10.5469C26.3197 11.0669 26.5997 11.8269 26.9464 12.2269L28.7598 14.3335C29.5464 15.2535 29.5464 16.7602 28.7598 17.6935L26.9464 19.8001C26.5997 20.2001 26.3197 20.9468 26.3197 21.4801V23.7469C26.3197 25.1602 25.1598 26.3201 23.7464 26.3201H21.4797C20.9597 26.3201 20.1998 26.6001 19.7998 26.9468L17.6931 28.7601C16.7731 29.5467 15.2664 29.5467 14.3331 28.7601L12.2264 26.9468C11.8264 26.6001 11.0798 26.3201 10.5464 26.3201H8.23975C6.82642 26.3201 5.66643 25.1602 5.66643 23.7469V21.4668C5.66643 20.9468 5.38644 20.2001 5.0531 19.8001L3.2531 17.6802C2.47976 16.7602 2.47976 15.2668 3.2531 14.3468L5.0531 12.2269C5.38644 11.8269 5.66643 11.0802 5.66643 10.5602V8.2801C5.66643 6.86677 6.82642 5.70686 8.23975 5.70686H10.5464C11.0664 5.70686 11.8264 5.4269 12.2264 5.08023L14.3331 3.26676Z" stroke="white" stroke-width="2" stroke-linecap="round" stroke-linejoin="round"/>
<g opacity="0.4">
<path d="M13.1868 19.7601L15.1202 21.2535C15.3735 21.5068 15.9335 21.6268 16.3068 21.6268H18.6668C19.4135 21.6268 20.2268 21.0669 20.4135 20.3202L21.9068 15.7601C22.2135 14.8935 21.6535 14.1335 20.7202 14.1335H18.2268C17.8535 14.1335 17.5468 13.8269 17.6002 13.3869L17.9068 11.3869C18.0268 10.8269 17.6535 10.2002 17.0935 10.0136C16.6002 9.82689 15.9735 10.0802 15.7202 10.4535L13.1602 14.2535" stroke="white" stroke-width="2" stroke-miterlimit="10"/>
<path d="M10 19.7598V13.6532C10 12.7732 10.3733 12.4666 11.2533 12.4666H11.88C12.7467 12.4666 13.1333 12.7732 13.1333 13.6532V19.7598C13.1333 20.6265 12.76 20.9465 11.88 20.9465H11.2533C10.3733 20.9465 10 20.6398 10 19.7598Z" stroke="white" stroke-width="2" stroke-linecap="round" stroke-linejoin="round"/>
</g>
</svg>
