<svg width="16" height="16" viewBox="0 0 16 16" fill="none" xmlns="http://www.w3.org/2000/svg">
<path d="M14 4.66668V11.3333C14 13.3333 13 14.6667 10.6667 14.6667H5.33333C3 14.6667 2 13.3333 2 11.3333V4.66668C2 2.66668 3 1.33334 5.33333 1.33334H10.6667C13 1.33334 14 2.66668 14 4.66668Z" stroke="#AD499B" stroke-miterlimit="10" stroke-linecap="round" stroke-linejoin="round"/>
<path opacity="0.4" d="M10.3334 1.33334V6.57333C10.3334 6.86667 9.98673 7.01333 9.7734 6.82L8.22677 5.39336C8.1001 5.27336 7.90006 5.27336 7.7734 5.39336L6.22677 6.82C6.01343 7.01333 5.66675 6.86667 5.66675 6.57333V1.33334H10.3334Z" stroke="#AD499B" stroke-miterlimit="10" stroke-linecap="round" stroke-linejoin="round"/>
<path opacity="0.4" d="M8.83325 9.33334H11.6666" stroke="#AD499B" stroke-miterlimit="10" stroke-linecap="round" stroke-linejoin="round"/>
<path opacity="0.4" d="M6 12H11.6667" stroke="#AD499B" stroke-miterlimit="10" stroke-linecap="round" stroke-linejoin="round"/>
</svg>
