<svg width="16" height="16" viewBox="0 0 16 16" fill="none" xmlns="http://www.w3.org/2000/svg">
<path d="M2.84009 7.34666V10.66C2.84009 11.8733 2.84009 11.8733 3.98675 12.6467L7.14009 14.4667C7.61342 14.74 8.38675 14.74 8.86009 14.4667L12.0134 12.6467C13.1601 11.8733 13.1601 11.8733 13.1601 10.66V7.34666C13.1601 6.13333 13.1601 6.13332 12.0134 5.35999L8.86009 3.53999C8.38675 3.26666 7.61342 3.26666 7.14009 3.53999L3.98675 5.35999C2.84009 6.13332 2.84009 6.13333 2.84009 7.34666Z" stroke="#AD499B" stroke-linecap="round" stroke-linejoin="round"/>
<path opacity="0.4" d="M11.6666 5.08668V3.33334C11.6666 2.00001 10.9999 1.33334 9.66659 1.33334H6.33325C4.99992 1.33334 4.33325 2.00001 4.33325 3.33334V5.04001" stroke="#AD499B" stroke-linecap="round" stroke-linejoin="round"/>
<path opacity="0.4" d="M8.41994 7.32667L8.79993 7.92C8.85993 8.01334 8.99327 8.10667 9.09327 8.13334L9.77327 8.30667C10.1933 8.41334 10.3066 8.77334 10.0333 9.10667L9.5866 9.64667C9.51994 9.73334 9.4666 9.88667 9.47327 9.99334L9.51327 10.6933C9.53994 11.1267 9.23327 11.3467 8.83327 11.1867L8.17994 10.9267C8.07994 10.8867 7.91327 10.8867 7.81327 10.9267L7.15993 11.1867C6.75993 11.3467 6.45327 11.12 6.47994 10.6933L6.51993 9.99334C6.5266 9.88667 6.47327 9.72667 6.4066 9.64667L5.95993 9.10667C5.6866 8.77334 5.79993 8.41334 6.21993 8.30667L6.89994 8.13334C7.0066 8.10667 7.13994 8.00667 7.19327 7.92L7.57327 7.32667C7.81327 6.96667 8.1866 6.96667 8.41994 7.32667Z" stroke="#AD499B" stroke-linecap="round" stroke-linejoin="round"/>
</svg>
